/* XPM */
static char *anime_ico[] = {
/* columns rows colors chars-per-pixel */
"16 16 42 1",
"  c none",
". c #040404040404",
"X c #050505050505",
"o c #101010101010",
"O c #111111111111",
"+ c #2E2E2E2E2F2F",
"@ c #303030303131",
"# c #303031313232",
"$ c #313132323333",
"% c #3A3A3A3A3C3C",
"& c #3C3C3C3C3E3E",
"* c #3F3F40404141",
"= c #414141414343",
"- c #434343434444",
"; c #434344444646",
": c #444444444646",
"> c #444445454646",
", c #454545454747",
"< c #454546464747",
"1 c #5F5F5F5F6060",
"2 c #606061616262",
"3 c #6C6C6C6C6D6D",
"4 c #6C6C6C6C6E6E",
"5 c #6C6C6D6D6E6E",
"6 c #6D6D6D6D6E6E",
"7 c #6D6D6D6D6F6F",
"8 c #6D6D6E6E6F6F",
"9 c #6E6E6E6E6F6F",
"0 c #767676767777",
"q c #777778787979",
"w c #949494949595",
"e c #959595959696",
"r c #AAAAAAAAABAB",
"t c #BBBBBBBBBCBC",
"y c #BDBDBDBDBDBD",
"u c #BDBDBEBEBEBE",
"i c #CACACACACACA",
"p c #CBCBCBCBCBCB",
"a c #CFCFCFCFD0D0",
"s c #CFCFD0D0D0D0",
"d c #D0D0D0D0D0D0",
"f c #D3D3D3D3D4D4",
/* pixels */
"    O#*,,=@o    ",
"  X$<--<<-<<#.  ",
" X&,-,<,,<<<<%. ",
" $,,,<<,-<<---$ ",
"o,,-28448841<<<O",
"@,-,afddaafa;<-@",
"*,,-t444pw4t;;;-",
"-,,-r<<,y0<r--<<",
"<<--r<<-y0<r-<<<",
"--,-t448pe4t-<-*",
"@-,,afaaddfa,,,@",
"O;,,14788442--,O",
" $-<;<,,-<<;,,$ ",
" .%;<,,-<<,,,&X ",
"  X#,-,<<,-<$X  ",
"    o@=<;*@O    "
};
