/* XPM */
static char *folder_ico[] = {
/* columns rows colors chars-per-pixel */
"16 16 44 1",
"  c none",
". c #040404040404",
"X c #050505050505",
"o c #101010101010",
"O c #111111111111",
"+ c #2E2E2E2E2F2F",
"@ c #303030303131",
"# c #303031313232",
"$ c #313132323333",
"% c #3A3A3A3A3C3C",
"& c #3C3C3C3C3E3E",
"* c #3F3F40404141",
"= c #414141414343",
"- c #434344444545",
"; c #444444444646",
": c #444445454646",
"> c #454545454747",
", c #454546464747",
"< c #484849494A4A",
"1 c #49494A4A4B4B",
"2 c #4C4C4D4D4E4E",
"3 c #4F4F50505151",
"4 c #555555555656",
"5 c #555555555757",
"6 c #565656565858",
"7 c #6E6E6E6E6F6F",
"8 c #6F6F6F6F7070",
"9 c #8A8A8A8A8B8B",
"0 c #8C8C8C8C8D8D",
"q c #A4A4A5A5A5A5",
"w c #A5A5A5A5A6A6",
"e c #A5A5A6A6A6A6",
"r c #A7A7A7A7A8A8",
"t c #B5B5B5B5B6B6",
"y c #B6B6B6B6B6B6",
"u c #B6B6B6B6B7B7",
"i c #B7B7B7B7B7B7",
"p c #C5C5C5C5C6C6",
"a c #C6C6C6C6C6C6",
"s c #D8D8D8D8D8D8",
"d c #E2E2E2E2E3E3",
"f c #E2E2E3E3E3E3",
"g c #FCFCFCFCFCFC",
"h c #FFFFFFFFFFFF",
/* pixels */
"    o@*>>=+O    ",
"  X$>;;>>->>#.  ",
" X&>>>,,>>>>>%X ",
" $>>>,,,->>---$ ",
"o>>->362>>->>>>O",
"@>->7fgseee7>>-+",
"*>>>9iiiiyi0>>>=",
"->>-gggggggg-->>",
",,;>fggggggf,,,,",
"-;;,agggggga,,>=",
"+;,,rggggggr>;;@",
"O;,,16556562>;>o",
" $>--,>>>>>;-,$ ",
" .%>>>>->>>;>%X ",
"   $>>->>-;>$X  ",
"    O+=>>*@O    "
};
