/* XPM */
static char *graph_ico[] = {
/* columns rows colors chars-per-pixel */
"16 16 49 1",
"  c none",
". c #040404040404",
"X c #050505050505",
"o c #101010101010",
"O c #111111111111",
"+ c #2E2E2E2E2F2F",
"@ c #303030303131",
"# c #303031313232",
"$ c #313132323333",
"% c #3A3A3A3A3C3C",
"& c #3C3C3C3C3E3E",
"* c #3F3F40404141",
"= c #414141414343",
"- c #424242424444",
"; c #424243434444",
": c #434343434545",
"> c #444444444646",
", c #444445454646",
"< c #454545454747",
"1 c #454546464747",
"2 c #464647474848",
"3 c #525252525454",
"4 c #595959595A5A",
"5 c #636364646565",
"6 c #6D6D6E6E6F6F",
"7 c #767677777878",
"8 c #787878787A7A",
"9 c #858586868787",
"0 c #949495959696",
"q c #A7A7A7A7A8A8",
"w c #A7A7A8A8A8A8",
"e c #A8A8A8A8A9A9",
"r c #A9A9A9A9AAAA",
"t c #A9A9AAAAAAAA",
"y c #AAAAAAAAAAAA",
"u c #BDBDBDBDBEBE",
"i c #BEBEBEBEBEBE",
"p c #BFBFBFBFC0C0",
"a c #C5C5C6C6C6C6",
"s c #C7C7C7C7C8C8",
"d c #D0D0D0D0D0D0",
"f c #D6D6D6D6D7D7",
"g c #DCDCDCDCDDDD",
"h c #E6E6E6E6E6E6",
"j c #F4F4F4F4F4F4",
"k c #FAFAFAFAFBFB",
"l c #FAFAFBFBFBFB",
"z c #FBFBFBFBFBFB",
"x c #FFFFFFFFFFFF",
/* pixels */
"    o@*,<=+O    ",
"  X$<,,<<,,<@.  ",
" X&<,,<<,<<<,%X ",
" $<<,<<<:<<,,,$ ",
"o<,,:::=:,==,<<O",
"@<,<iqwwqqwa<<,+",
"*<<<q80<<<<q<,,=",
":<<,y58<6<1q:,<<",
"11:,q141gd9q<11<",
"::,<y3haxxaq11<*",
"+:<<afkkzzji<<,@",
"O<,,:=:::=:<,:<o",
" $,,,<<,,<<::<$ ",
" .%,<<,,<<<<<&X ",
"   $<,,<<,:<$X  ",
"    O+=<,*@O    "
};
