/* XPM */
static char *palet_ico[] = {
/* columns rows colors chars-per-pixel */
"16 16 62 1",
"  c none",
". c #040404040404",
"X c #050505050505",
"o c #101010101010",
"O c #111111111111",
"+ c #2E2E2E2E2F2F",
"@ c #303030303131",
"# c #303031313232",
"$ c #313132323333",
"% c #3A3A3A3A3C3C",
"& c #3C3C3C3C3E3E",
"* c #3F3F40404141",
"= c #414141414343",
"- c #434344444545",
"; c #444444444545",
": c #444444444646",
"> c #444445454646",
", c #454545454747",
"< c #454546464747",
"1 c #474748484949",
"2 c #585858585A5A",
"3 c #6A6A6A6A6B6B",
"4 c #6B6B6B6B6C6C",
"5 c #707071717272",
"6 c #717171717272",
"7 c #727273737474",
"8 c #787878787979",
"9 c #7A7A7B7B7C7C",
"0 c #7C7C7C7C7D7D",
"q c #818182828383",
"w c #848484848585",
"e c #878788888989",
"r c #8C8C8C8C8D8D",
"t c #919191919292",
"y c #929292929393",
"u c #9C9C9C9C9D9D",
"i c #ACACACACADAD",
"p c #B8B8B8B8B9B9",
"a c #BBBBBBBBBCBC",
"s c #C2C2C3C3C3C3",
"d c #CBCBCCCCCCCC",
"f c #CCCCCCCCCCCC",
"g c #CECECECECFCF",
"h c #D1D1D1D1D2D2",
"j c #D3D3D3D3D4D4",
"k c #D4D4D4D4D5D5",
"l c #D8D8D8D8D8D8",
"z c #DBDBDBDBDBDB",
"x c #DFDFDFDFDFDF",
"c c #E0E0E1E1E1E1",
"v c #E3E3E3E3E3E3",
"b c #E5E5E5E5E5E5",
"n c #E6E6E6E6E7E7",
"m c #E7E7E8E8E8E8",
"M c #E9E9E9E9E9E9",
"N c #EAEAEAEAEAEA",
"B c #EBEBEBEBEBEB",
"V c #F1F1F1F1F1F1",
"C c #F6F6F6F6F6F6",
"Z c #FCFCFCFCFCFC",
"A c #FDFDFDFDFDFD",
"S c #FFFFFFFFFFFF",
/* pixels */
"    o$*,,=+O    ",
"  X$,--,,-,,#.  ",
" X&,-,,,,,,,,%X ",
" $,,,<,--,,---$ ",
"o,-,,,3fn2-,,,,O",
"@,,,,rSSv1w7,,-+",
"*,,,8C0SSchx,,,=",
"-,,-kpmSSaiM--<,",
",,,-BtVSSSSs,,,-",
"=,-,djuSMeS3,,,*",
"+-,,5bxqlly<,,-$",
"O,,-,5fBk0<<--,o",
" #-,-<,-,,,;,,$ ",
" X%-,,,-,,;;,%X ",
"  X#,,-,,--,$X  ",
"    O+=,,*$O    "
};
